<svg width="112" height="111" viewBox="0 0 112 111" fill="none" xmlns="http://www.w3.org/2000/svg">
<path fill-rule="evenodd" clip-rule="evenodd" d="M15.03 2.70855L12.4933 5.2461L24.177 16.9308L35.8607 28.6153L35.1973 29.1443C34.3247 29.8399 30.5634 33.6089 29.5801 34.773L28.8073 35.6879L17.1143 24.0015L5.42144 12.3151L2.96906 14.7715C0.016992 17.7286 -0.761324 13.946 7.73543 37.9335C15.3319 59.3791 15.1282 58.7552 14.2655 57.9191C13.9219 57.586 13.6155 57.4223 13.4529 57.4845C13.3096 57.5395 11.8635 57.1605 10.2399 56.6421L7.28747 55.6995L4.44568 58.5414L1.60373 61.3832L2.56901 64.295C3.09998 65.8966 3.49221 67.3394 3.44081 67.5014C3.37045 67.7233 4.93839 69.3856 9.79175 74.2338L16.2362 80.6714L18.9808 80.2659C22.6257 79.7272 22.4219 79.7114 22.7525 80.5586C23.2857 81.9263 25.2438 85.6094 26.3544 87.3344C27.6941 89.4152 27.9032 89.4955 29.5705 88.571C30.84 87.8669 30.6309 87.8175 31.5629 89.0421C34.1457 92.4359 34.8262 93.164 37.2008 95.0736C39.8918 97.2377 39.7791 97.0541 39.1292 98.2122C38.2587 99.7635 38.266 99.7901 39.8208 100.764C46.8444 105.165 53.8394 107.32 62.4227 107.728L64.8611 107.844L66.3715 109.361L67.8819 110.877L69.7952 110.764C91.558 109.481 109.318 92.0705 111.229 70.1451L111.343 68.8387L109.815 67.3045L108.288 65.7703L108.225 62.7058C108.049 53.9847 104.238 41.996 100.334 37.8854C100.265 37.8132 99.5684 38.1313 98.7851 38.5924C97.0154 39.6338 97.2868 39.7077 95.914 37.8125C94.3328 35.6298 93.0198 34.2638 90.5766 32.2594C88.2042 30.3132 88.2856 30.5289 89.2603 28.7667C89.672 28.0225 90.0089 27.3834 90.0089 27.3468C90.0089 27.3102 89.1668 26.7273 88.1375 26.0517C83.7572 23.1759 79.2861 21.2492 74.04 19.9767C72.6867 19.6485 22.3358 1.99711 17.8164 0.266485C17.6489 0.202443 16.7325 1.00554 15.03 2.70855ZM42.3557 9.98419C55.6193 14.676 66.5324 18.5696 66.6069 18.6368C66.6814 18.704 64.9972 18.8015 62.8642 18.8532C53.4013 19.0831 45.0441 21.8474 37.7317 27.166L36.581 28.003L25.2857 16.7087C19.0733 10.497 13.9906 5.34058 13.9906 5.25026C13.9906 4.93537 17.7284 1.32392 17.9866 1.38946C18.126 1.42472 29.0921 5.29234 42.3557 9.98419ZM23.6434 6.33864C19.8574 7.9282 20.9375 13.398 25.0372 13.398C29.8857 13.398 30.0795 6.37822 25.2358 6.20772C24.5859 6.18493 23.8693 6.24382 23.6434 6.33864ZM26.4344 7.45645C27.6338 8.07874 28.11 9.74083 27.4668 11.0583C26.2065 13.6394 22.3077 12.7122 22.3077 9.83149C22.3077 7.65557 24.4463 6.42463 26.4344 7.45645ZM34.7587 12.6521C31.27 14.4954 32.5252 19.6359 36.4642 19.6359C40.4316 19.6359 41.5627 14.102 37.9075 12.5751C37.0479 12.216 35.513 12.2536 34.7587 12.6521ZM37.331 13.3895C40.6089 14.5586 39.0397 19.6337 35.7088 18.6358C32.6975 17.7336 33.3137 13.1631 36.4467 13.1631C36.584 13.1631 36.9819 13.265 37.331 13.3895ZM16.8811 25.1047C23.0905 31.3146 28.1429 36.4609 28.1087 36.5407C28.0744 36.6205 27.5148 37.4719 26.8651 38.4325C22.372 45.0754 19.7645 52.8088 19.3659 60.6723C19.2435 63.0857 19.3572 63.0223 17.8585 61.5125L16.6615 60.3065L9.09245 38.9315L1.52338 17.5566L3.38775 15.6852C4.41325 14.6561 5.32846 13.8139 5.42161 13.8139C5.51493 13.8139 10.6717 18.8948 16.8811 25.1047ZM68.3012 19.9872C74.748 20.6081 81.3042 22.8802 87.1395 26.5156C89.0158 27.6843 89.0913 27.0654 86.4896 31.8389L84.3008 35.8542L78.2994 41.8849L72.2979 47.9157L76.0373 51.6579L79.7765 55.3999L85.4333 49.7542L91.0901 44.1084L95.4873 41.5804L99.8846 39.0523L100.228 39.4856C103.923 44.147 106.97 53.9492 107.256 62.0947L107.36 65.0472H106.976C106.587 65.0472 78.0522 62.9149 77.4605 62.8415C77.1975 62.8089 77.1014 62.5825 76.9382 61.6109C74.5159 47.1823 53.827 47.0382 51.3147 61.4325C50.0385 68.7445 56.0518 76.5248 62.9791 76.5248H63.6753L63.7834 82.3052C63.8428 85.4843 63.9409 92.2962 64.0015 97.4423L64.1116 106.799L62.9627 106.799C57.3474 106.796 50.3907 105.123 44.7638 102.422C43.0518 101.6 39.8576 99.7507 39.6944 99.4865C39.6388 99.3967 40.7942 97.2376 42.2619 94.6886C43.7294 92.1395 44.9302 89.9475 44.9302 89.8174C44.9302 89.6873 47.4378 87.0741 50.5026 84.0102C57.0963 77.4189 56.7629 78.7892 52.7479 74.7779L49.4207 71.4539L43.6407 77.2118L37.8606 82.9698L33.1072 85.5692C30.493 86.9991 28.2805 88.1688 28.1908 88.1688C27.8931 88.1688 26.1427 85.2964 24.7634 82.5443C23.3425 79.709 23.3092 79.5241 24.2206 79.524C24.6868 79.524 46.3095 73.8506 46.4983 73.6787C46.6161 73.5716 45.193 63.0939 45.04 62.9413C45.0253 62.9267 40.073 63.5811 34.0348 64.3953C20.8575 66.1725 22.4281 66.1226 21.1621 64.8042L20.1301 63.7296L20.2169 62.517C20.2646 61.8501 20.347 60.5942 20.3997 59.7261C21.8519 35.8725 43.8406 17.6308 68.3012 19.9872ZM8.26124 21.6398C5.13833 23.1977 5.6332 27.8106 9.01011 28.6207C12.6823 29.5016 15.1368 24.8773 12.384 22.2646C11.3492 21.2825 9.52993 21.0068 8.26124 21.6398ZM11.346 22.6729C13.0955 23.8355 12.9903 26.4333 11.1539 27.4168C8.54169 28.8159 5.94659 25.7206 7.6832 23.2771C8.39298 22.2784 10.2831 21.9666 11.346 22.6729ZM71.0836 27.8319L69.7146 29.2078L71.0457 30.5311C72.6434 32.1193 72.6265 31.9345 71.2964 33.2749L70.2162 34.3634L72.6263 36.7693L75.0366 39.1752L76.4513 37.7678L77.8661 36.3604L76.5353 35.0227C74.9373 33.4163 74.9537 33.5979 76.287 32.2765L77.3695 31.2034L75 28.8297C72.1986 26.0232 72.7444 26.1623 71.0836 27.8319ZM74.245 29.4053C76.1133 31.2667 76.0796 31.1738 75.2021 32.0307L74.5342 32.6827L72.8733 31.028C70.9707 29.1325 71.0169 29.2481 71.8282 28.4174C72.6032 27.6238 72.3547 27.5221 74.245 29.4053ZM56.1323 30.9586C54.5732 31.2567 53.0147 32.5711 52.5325 33.9952L52.2973 34.6898L51.4831 34.6502C49.275 34.5429 49.4435 36.1706 51.7598 37.3248C52.2511 37.5697 52.8005 38.019 53.0794 38.4041C55.9237 42.3306 61.7622 40.4625 61.8287 35.6047C61.8393 34.827 61.944 33.9662 62.0611 33.6918C62.9013 31.7231 62.0227 30.083 60.8756 31.4787L60.4361 32.0134L59.3785 31.4942C58.2177 30.9245 57.1942 30.7557 56.1323 30.9586ZM90.1907 33.1651C92.583 35.1576 93.3172 35.9194 94.9843 38.1392C96.3508 39.9587 96.356 40.0141 95.213 40.6362L94.39 41.0842L90.6608 37.3423C86.3572 33.0241 86.6853 33.5098 87.2893 32.3539C87.8976 31.1898 87.779 31.1567 90.1907 33.1651ZM58.1657 32.0305C59.9417 32.5753 59.9229 32.7922 57.9872 34.0868C56.301 35.2146 53.0505 35.5355 53.3418 34.5453C53.9226 32.5703 56.1465 31.411 58.1657 32.0305ZM14.9617 32.798C13.5003 33.209 12.3374 34.7998 12.3308 36.3966C12.3147 40.2589 17.5631 41.5404 19.3062 38.0998C20.7808 35.1893 18.098 31.9154 14.9617 32.798ZM61.398 32.6992C61.398 35.2106 55.942 37.7583 52.8188 36.7052C50.6899 35.9874 50.9381 35.8199 54.1033 35.8379L56.997 35.8542L57.9701 35.272C58.5053 34.9518 59.4395 34.2252 60.046 33.6573C61.0615 32.7063 61.398 32.468 61.398 32.6992ZM74.744 34.5619C76.5867 36.3978 76.5508 36.316 75.8372 37.0522C75.1161 37.7962 75.1643 37.8174 73.2938 35.9397L71.639 34.2788L72.2911 33.6109C73.108 32.7744 72.849 32.6741 74.744 34.5619ZM17.324 33.9917C19.7778 35.2891 18.8737 39.0979 16.1119 39.0979C14.5223 39.0979 13.5032 38.2304 13.3616 36.7568C13.1314 34.3606 15.2396 32.8893 17.324 33.9917ZM89.9262 37.934L92.9173 40.9286L86.432 47.4155C78.7926 55.0567 80.2456 54.5397 76.6178 50.9077L73.6267 47.913L80.112 41.4262C87.7514 33.7849 86.2984 34.3019 89.9262 37.934ZM60.899 36.0739C60.899 39.0089 56.7133 40.6171 54.4533 38.5504C53.8897 38.0351 53.9875 37.9335 55.0468 37.9335C56.623 37.9335 59.5014 36.8384 60.329 35.9239C60.7303 35.4804 60.899 35.5248 60.899 36.0739ZM36.8624 41.5932L35.5395 42.9239L36.9454 44.3373L38.3515 45.7507L37.1938 46.9174L36.036 48.0842L38.4854 50.5334L40.9348 52.9828L42.267 51.6584C43.8852 50.0497 43.8882 50.2904 42.2311 48.6248L40.8629 47.2495L41.9806 46.123L43.0984 44.9967L40.7269 42.6295C37.925 39.8326 38.4679 39.9782 36.8624 41.5932ZM39.9785 43.2117C41.8212 45.0476 41.7853 44.9658 41.0717 45.702C40.3506 46.446 40.3988 46.4672 38.5283 44.5895L36.8736 42.9286L37.5256 42.2607C38.3425 41.4242 38.0835 41.3239 39.9785 43.2117ZM40.6439 48.3683C42.5126 50.23 42.4786 50.1367 41.5998 50.9947L40.931 51.6479L39.1508 49.8675L37.3704 48.0873L38.0237 47.4185C38.8787 46.5428 38.773 46.5046 40.6439 48.3683ZM90.0102 49.4929L88.6019 50.9085L90.1371 52.4501C91.9477 54.2683 91.9092 54.0956 90.7564 55.234L89.8405 56.1386L88.4657 54.7709C86.8008 53.1147 87.0415 53.1175 85.4336 54.7349L84.1097 56.0666L86.5155 58.4766L88.9213 60.8867L90.0478 59.7689L91.1743 58.651L92.6327 60.1027L94.0912 61.5544L95.4981 60.1401L96.9051 58.7259L95.3699 57.1842C93.533 55.3397 93.5611 55.5995 95.0382 54.1124L96.2419 52.9008L93.8301 50.4891L91.4184 48.0773L90.0102 49.4929ZM93.2502 51.2385L94.905 52.8994L94.2529 53.5673C93.3951 54.4457 93.4922 54.482 91.5914 52.5739L89.9367 50.913L90.5887 50.2451C91.4466 49.3667 91.3494 49.3304 93.2502 51.2385ZM67.3032 51.9947C78.1033 54.9656 79.1928 70.0964 68.9335 74.6337C67.7703 75.148 67.6503 75.0329 68.4724 74.191L69.121 73.527L67.8824 72.2801L66.6438 71.0332L69.4282 68.2452L72.2126 65.4571L70.9504 64.2125L69.688 62.968L69.7747 62.1963C70.3622 56.9668 64.9696 52.4977 59.8896 54.0038C51.2645 56.561 53.0265 69.1599 62.0218 69.2505C63.8491 69.269 63.8163 69.1881 62.5247 70.4914L61.4887 71.5367L63.398 73.4533C65.6133 75.6773 65.6155 75.7696 63.4455 75.6108C54.4721 74.9537 49.2908 65.4523 53.6528 57.6523C56.2566 52.9966 62.1163 50.5678 67.3032 51.9947ZM29.499 54.2794L27.1299 56.6528L28.5455 58.0609L29.9609 59.4689L32.3715 57.0626L34.782 54.6565L33.414 53.2814C31.7541 51.6128 32.2998 51.4737 29.499 54.2794ZM64.937 55.3563C67.0108 56.3289 68.3436 58.1319 68.746 60.5093C69.0098 62.067 68.8941 62.1334 67.7992 61.052L66.8895 60.1536L66.2205 60.807L65.5514 61.4602L63.6797 59.5939L61.8081 57.7275L61.2701 58.2656L60.732 58.8036L62.5942 60.6709C64.4329 62.515 64.4524 62.5426 64.1488 62.878C63.6791 63.3969 63.63 63.3653 61.3107 61.0509L59.1396 58.8841L58.6534 59.3916L58.1673 59.8989L60.4021 62.1384L62.637 64.3779L61.8154 65.2121L60.9937 66.0463L61.9443 67.0071C64.2066 69.2933 59.5909 68.6683 57.2302 66.3688C51.8191 61.0983 58.0863 52.1429 64.937 55.3563ZM93.9156 57.0605L95.5703 58.7214L94.9183 59.3893C94.0604 60.2677 94.1576 60.304 92.2568 58.3959L90.602 56.7349L91.2541 56.0671C92.1119 55.1886 92.0148 55.1524 93.9156 57.0605ZM10.0764 57.6147C11.2574 58.0098 12.2471 58.4032 12.2757 58.489C12.3692 58.7693 4.53318 66.4686 4.34554 66.281C4.25173 66.1872 3.83787 65.1054 3.42584 63.8772L2.6768 61.6439L5.04634 59.2702C6.34947 57.9645 7.53116 56.8965 7.67222 56.8965C7.81344 56.8965 8.89516 57.2197 10.0764 57.6147ZM17.7073 62.6925L21.6711 66.6589L22.8993 72.5448C23.575 75.7821 24.0737 78.478 24.0078 78.5357C23.8758 78.6512 17.4852 79.5283 16.8175 79.5226C16.4935 79.5198 15.0872 78.205 10.4975 73.614L4.59422 67.709L9.0833 63.2176C14.4161 57.882 12.987 57.969 17.7073 62.6925ZM68.8392 63.4227C71.1079 65.685 71.1352 65.2018 68.5947 67.748C66.0521 70.2963 66.5335 70.2725 64.231 67.9634L62.3286 66.0554L62.7239 65.6346C63.2523 65.0723 63.3426 65.0921 64.2283 65.9644L64.9907 66.7155L65.4733 66.2118L65.9556 65.7083L65.1436 64.8837C64.3463 64.0743 64.3371 64.0532 64.6372 63.7215C65.07 63.2433 65.2279 63.289 66.0551 64.1318L66.7893 64.8799L67.3389 64.3471L67.8887 63.8145L67.1385 63.0528C66.3427 62.2449 66.2695 62.072 66.5879 61.7537C66.884 61.4576 66.8233 61.4123 68.8392 63.4227ZM91.7684 64.8776C99.0803 65.4247 105.464 65.9177 105.954 65.9731L106.846 66.0737L106.731 67.3487C104.998 86.5 89.7757 102.705 70.5468 105.867C68.9603 106.128 65.2164 106.518 65.1357 106.43C65.0832 106.373 64.7216 82.2184 64.7235 78.8952L64.7249 76.5248L65.3487 76.5223C70.7099 76.5012 76.4944 70.8451 76.9756 65.1535L77.0829 63.8828H77.7786C78.161 63.8828 84.4565 64.3305 91.7684 64.8776ZM44.2648 64.119C44.2648 64.1575 44.5614 66.1564 44.9239 68.5612C45.2863 70.9658 45.5616 72.9546 45.5355 72.9809C45.3247 73.1915 25.2125 78.3128 25.1287 78.1773C24.9553 77.8967 22.7421 67.0523 22.8386 66.9558C22.8877 66.9068 23.3084 66.8216 23.7735 66.7665C24.7757 66.6478 24.6634 66.376 25.0556 69.8711C25.2045 71.1977 25.3506 72.3628 25.3802 72.4603C25.4302 72.6249 29.0801 72.3031 29.2654 72.1176C29.3027 72.0803 29.1734 70.7252 28.978 69.106C28.7825 67.4868 28.6428 66.1439 28.6672 66.1216C28.8484 65.9571 44.2648 63.9778 44.2648 64.119ZM87.0137 66.2006C85.1184 66.7772 83.699 68.6347 83.6915 70.5485C83.6679 76.5355 92.4636 76.864 92.7991 70.8887C92.9754 67.748 89.96 65.3044 87.0137 66.2006ZM89.7608 67.3536C92.906 68.7824 92.4448 73.3349 89.0687 74.1851C86.8198 74.7513 84.6859 73.0272 84.6859 70.6436C84.6859 68.0111 87.3732 66.2688 89.7608 67.3536ZM109.341 68.161C110.45 69.2585 110.439 69.1973 110.045 72.0695C107.22 92.6219 91.0858 107.939 70.3072 109.793L68.3209 109.97L67.2714 108.93C65.9488 107.619 65.8608 107.737 68.3428 107.498C88.2465 105.585 105.009 89.5967 107.731 69.9284C108.181 66.6815 108.022 66.8555 109.341 68.161ZM52.1669 75.694L54.8254 78.3563L47.8826 85.2992L40.9396 92.242L38.2773 89.5835C36.813 88.1214 35.615 86.8497 35.615 86.7575C35.615 86.5376 49.1195 73.0316 49.3394 73.0316C49.4324 73.0316 50.7047 74.2296 52.1669 75.694ZM94.9991 73.6839C92.3751 74.218 90.6829 76.9152 91.4078 79.4087C92.8901 84.5077 100.392 83.5584 100.395 78.2714C100.397 75.322 97.8 73.1138 94.9991 73.6839ZM96.9292 74.7741C100.658 75.8816 100.088 81.4476 96.2091 81.7994C92.6883 82.1186 90.7983 77.8682 93.4309 75.5511C94.5297 74.5838 95.5359 74.3602 96.9292 74.7741ZM79.2607 76.2948C76.3642 77.3221 75.399 81.2192 77.4419 83.6393C79.0632 85.5599 82.0813 85.7034 83.9833 83.9502C87.6688 80.553 84.0041 74.6126 79.2607 76.2948ZM82.4885 77.3412C85.9252 79.1091 84.7423 84.1766 80.8928 84.1766C77.9349 84.1766 76.2683 81.0129 77.9314 78.5549C78.9017 77.121 80.9826 76.5668 82.4885 77.3412ZM69.7141 83.5002C67.1302 84.2864 65.6343 87.4071 66.708 89.7718C68.8513 94.4918 75.9101 92.7457 75.4967 87.5979C75.269 84.7604 72.3563 82.6965 69.7141 83.5002ZM87.0488 83.8169C82.1648 85.5559 83.2702 92.6954 88.4286 92.7285C91.1036 92.7457 93.0546 90.8223 93.0501 88.1726C93.0449 85.0555 89.9265 82.7923 87.0488 83.8169ZM72.4613 84.6531C73.8644 85.2906 74.6275 86.6654 74.5066 88.3378C74.2107 92.4288 68.2726 92.7279 67.4078 88.6952C66.7955 85.8403 69.7943 83.4417 72.4613 84.6531ZM89.7292 84.7742C92.2442 85.6312 92.9157 88.9764 90.9385 90.7988C87.9572 93.5469 83.5333 90.2597 85.2505 86.5721C86.0341 84.889 87.8853 84.146 89.7292 84.7742ZM34.6504 86.2214L34.1243 86.7642L37.5283 90.1652L40.9325 93.5664L41.6803 92.8325C42.0915 92.4288 42.4593 92.1314 42.4976 92.1713C42.5761 92.2538 40.6021 95.7239 40.3112 96.0148C39.9923 96.3337 35.733 92.7811 34.3353 91.0307C32.1386 88.2796 31.5403 87.4513 31.706 87.392C31.7975 87.3592 32.5834 86.9349 33.4526 86.4493C35.2116 85.4662 35.4209 85.4265 34.6504 86.2214ZM49.5871 89.0843L48.1797 90.4991L50.5856 92.9094L52.9914 95.3195L54.08 94.2393C55.4182 92.9114 55.2186 92.8931 56.8238 94.4899L58.1615 95.8207L59.5297 94.4455L60.8977 93.0702L58.4877 90.6646L56.0778 88.2589L55.0323 89.2951C53.743 90.5729 53.9339 90.5937 52.3322 89.0003L50.9945 87.6696L49.5871 89.0843ZM52.8291 90.8279L54.4839 92.4888L53.8318 93.1567C52.974 94.0352 53.0711 94.0714 51.1703 92.1633L49.5156 90.5024L50.1676 89.8345C51.0254 88.9561 50.9283 88.9198 52.8291 90.8279ZM57.7771 91.2845C59.6198 93.1204 59.5839 93.0386 58.8703 93.7748C58.1492 94.5189 58.1975 94.54 56.3269 92.6623L54.6722 91.0014L55.3242 90.3335C56.1411 89.497 55.8821 89.3967 57.7771 91.2845ZM76.6183 91.3888C73.5628 92.818 72.9991 96.8532 75.5499 99.0366C78.5175 101.577 83.1191 99.4592 83.0817 95.571C83.0493 92.1796 79.6416 89.9747 76.6183 91.3888ZM80.1939 92.3268C80.9738 92.7247 81.8105 93.7121 82.0269 94.4898C83.0338 98.1084 78.6089 100.734 75.9654 98.0862C73.0588 95.1753 76.5243 90.4548 80.1939 92.3268Z" fill="#70BB5D"/>
</svg>
