<?xml version="1.0" standalone="no"?>
<!DOCTYPE svg PUBLIC "-//W3C//DTD SVG 20010904//EN"
 "http://www.w3.org/TR/2001/REC-SVG-20010904/DTD/svg10.dtd">
<svg version="1.0" xmlns="http://www.w3.org/2000/svg"
 width="714.000000pt" height="714.000000pt" viewBox="0 0 714.000000 714.000000"
 preserveAspectRatio="xMidYMid meet">
<metadata>
Created by potrace 1.14, written by Peter Selinger 2001-2017
</metadata>
<g transform="translate(0.000000,714.000000) scale(0.100000,-0.100000)"
fill="#000000" stroke="none">
<path d="M2168 6915 c-7 -8 -453 -17 -928 -20 -272 -2 -506 -5 -520 -8 -14 -3
-58 -11 -99 -17 -84 -12 -218 -54 -242 -76 -8 -8 -21 -14 -27 -14 -20 0 -118
-105 -149 -160 -54 -95 -94 -238 -108 -391 -3 -35 -8 -80 -11 -99 -3 -19 -7
-150 -9 -290 -5 -291 -12 -505 -22 -735 -11 -274 -6 -576 11 -657 3 -13 7 -36
10 -53 21 -151 86 -285 188 -387 42 -43 83 -78 91 -78 9 0 17 -3 19 -7 9 -21
194 -89 267 -99 25 -3 48 -8 52 -9 15 -9 170 -19 299 -19 147 0 240 6 340 24
87 16 93 17 181 41 427 115 775 417 987 859 74 154 162 415 177 525 2 11 8 40
14 65 43 188 55 371 55 815 0 402 -6 512 -34 604 -25 84 -61 128 -129 159 -53
25 -66 26 -233 28 -97 2 -178 1 -180 -1z"/>
<path d="M5097 6544 c-1 -1 -48 -4 -105 -8 -101 -6 -291 -39 -324 -57 -10 -6
-18 -8 -18 -5 0 3 -46 -11 -102 -30 -212 -73 -620 -296 -734 -401 -95 -88
-137 -167 -181 -338 -3 -11 -7 -85 -8 -165 -5 -247 49 -472 183 -750 82 -171
181 -315 352 -510 139 -159 349 -347 426 -382 13 -6 24 -15 24 -20 0 -4 5 -8
10 -8 6 0 27 -10 48 -23 106 -65 288 -128 417 -143 290 -35 557 43 900 261 72
46 173 108 225 139 52 31 102 61 110 66 8 6 29 17 45 26 17 8 39 21 50 27 11
7 52 30 90 52 200 112 319 205 358 280 69 133 48 262 -84 525 -106 211 -370
629 -517 820 -62 80 -234 260 -312 325 -160 135 -398 250 -598 290 -68 13
-249 34 -255 29z"/>
<path d="M3227 2874 c-1 -1 -40 -4 -87 -8 -266 -20 -511 -158 -702 -396 -33
-42 -148 -224 -148 -236 0 -3 -11 -30 -25 -59 -106 -233 -144 -523 -100 -780
3 -16 7 -43 10 -60 20 -118 38 -192 72 -300 124 -389 384 -669 767 -825 169
-69 413 -128 611 -146 39 -4 84 -8 100 -10 17 -2 154 -6 305 -9 321 -5 634
-17 850 -30 98 -7 384 -6 440 1 319 38 433 188 484 634 25 212 26 746 2 866
-2 12 -7 39 -10 60 -17 104 -79 283 -134 384 -223 410 -649 681 -1282 815 -67
14 -152 30 -189 35 -36 5 -77 12 -91 14 -31 6 -93 13 -190 21 -41 4 -88 8
-105 10 -71 9 -570 25 -578 19z"/>
</g>
</svg>
